PathFileType	4	(X/Y/Z)	./resultDataOpenSim/trcMotMarkerGrf/sub10/qtm-04-04.trc
DataRate	CameraRate	NumFrames	NumMarkers	Units	OrigDataRate	OrigDataStartFrame	OrigNumFrames
250.000000	250.000000	9	24	m	250.000000	1	520
Frame#	Time	L.Toe.Tip			R.Toe.Tip			L.Ankle.Lat			R.Ankle.Lat			L.Ankle.Med			R.Ankle.Med			L.Heel			R.Heel			L.Knee.Lat			R.Knee.Lat			L.Knee.Med			R.Knee.Med			L.Thigh.Upper			R.Thigh.Upper			L.ASIS			R.ASIS			V.Sacral			L.Acromium			R.Acromium			C7			L.Elbow			R.Elbow			L.Wrist.Lat			R.Wrist.Lat
		X1	Y1	Z1	X2	Y2	Z2	X3	Y3	Z3	X4	Y4	Z4	X5	Y5	Z5	X6	Y6	Z6	X7	Y7	Z7	X8	Y8	Z8	X9	Y9	Z9	X10	Y10	Z10	X11	Y11	Z11	X12	Y12	Z12	X13	Y13	Z13	X14	Y14	Z14	X15	Y15	Z15	X16	Y16	Z16	X17	Y17	Z17	X18	Y18	Z18	X19	Y19	Z19	X20	Y20	Z20	X21	Y21	Z21	X22	Y22	Z22	X23	Y23	Z23	X24	Y24	Z24

1	0	-1.5108974	0.039689121	-0.18307675	-0.90334917	0.087619518	-0.0025020924	-1.6355093	0.06490393	-0.227787	-1.0444405	0.070461472	0.017829747	-1.639828	0.090239993	-0.14394787	-1.0231694	0.10715049	-0.059434061	NaN	NaN	NaN	-1.0773576	0.03590436	-0.037961831	-1.4709419	0.41860779	-0.24400524	-1.1538899	0.45526318	0.047910091	-1.477115	0.39836552	-0.12474195	-1.1342204	0.46238628	-0.081044006	-1.3541688	0.79378898	-0.29606933	-1.3284951	0.83417203	0.088825732	-1.2828166	0.89843824	-0.23774181	-1.26487	0.92386421	0.0066153983	-1.474288	0.92724273	-0.10021081	-1.2897939	1.3706753	-0.28548438	-1.3136428	1.3764157	0.038148681	-1.3798982	1.4131358	-0.13393636	-1.4122138	1.04143	-0.36366158	-1.4602963	1.0547212	0.076371167	-1.2215175	0.88767945	-0.30182444	-1.3658842	0.84217114	0.14885335
2	0.004	-1.510787	0.038944298	-0.18296099	-0.89329903	0.089471425	-0.0022165365	-1.6353094	0.065694117	-0.22749762	-1.0341498	0.07072749	0.018976091	-1.6395618	0.090732035	-0.14387976	-1.0139275	0.10763792	-0.058448353	NaN	NaN	NaN	-1.0669344	0.035828605	-0.036425219	-1.4689884	0.41822056	-0.24396295	-1.1493673	0.45398879	0.049055907	-1.4749097	0.39786645	-0.1245555	-1.1297736	0.4609721	-0.079846281	-1.3507294	0.793095	-0.29569538	-1.3235189	0.83290373	0.089329898	-1.279262	0.89753145	-0.23758109	-1.2604517	0.92273352	0.0067854328	-1.4705182	0.92596718	-0.099861554	-1.2854527	1.3694201	-0.28481445	-1.3098521	1.3751116	0.038732996	-1.3757857	1.4119803	-0.13333475	-1.4070641	1.0396228	-0.36393802	-1.4579042	1.0539844	0.076313235	-1.2157295	0.88738017	-0.3000813	-1.3631423	0.84108211	0.14981859
3	0.008	-1.5107037	0.038444983	-0.18285172	-0.88348929	0.091367584	-0.0019590311	-1.6351345	0.06635393	-0.22727463	-1.0240464	0.071009502	0.020167362	-1.6392453	0.091161236	-0.14378784	-1.0048612	0.10809068	-0.057443154	NaN	NaN	NaN	-1.0566957	0.035725487	-0.034862114	-1.4670045	0.41781401	-0.24391492	-1.1446959	0.45277258	0.050219299	-1.4727854	0.39737726	-0.12435603	-1.1252986	0.45956448	-0.078664011	-1.3472842	0.79238156	-0.29529673	-1.3185533	0.8316598	0.089824795	-1.275608	0.89663345	-0.23738767	-1.2559234	0.92159482	0.0069817438	-1.4665723	0.92467855	-0.099091519	-1.2810774	1.3681678	-0.2841121	-1.3060371	1.373829	0.039336212	-1.3716616	1.4108239	-0.13271552	-1.4019191	1.037909	-0.36424202	-1.4552426	1.0532105	0.076339072	-1.2099143	0.88708712	-0.29831869	-1.3606976	0.83992504	0.15072143
4	0.012	-1.5106491	0.038228517	-0.18277784	-0.87400516	0.093345044	-0.0017743185	-1.6349833	0.066879498	-0.22711172	-1.0142352	0.071310847	0.021412103	-1.6388724	0.091539603	-0.14368159	-0.9960557	0.10850529	-0.056418664	NaN	NaN	NaN	-1.0467465	0.035578145	-0.033254078	-1.4649751	0.41738908	-0.24386014	-1.1398405	0.45164409	0.051397291	-1.4706858	0.39689192	-0.12414123	-1.1207796	0.45817078	-0.077507282	-1.3438603	0.79164682	-0.29490539	-1.3135551	0.83044513	0.090312459	-1.2718783	0.89573101	-0.23716713	-1.2512484	0.92045159	0.007209876	-1.4623651	0.92339855	-0.097838888	-1.2766499	1.3669277	-0.28337013	-1.3021581	1.3725754	0.039966392	-1.3675214	1.4096658	-0.13209065	-1.3967564	1.03636	-0.36445825	-1.4522562	1.0523945	0.076468844	-1.2040394	0.88680587	-0.29652177	-1.358451	0.8387078	0.1515783
5	0.016	-1.5106105	0.038171484	-0.18275171	-0.86477572	0.095427372	-0.001643831	-1.6348382	0.06735354	-0.22696097	-1.0047473	0.071626265	0.022691206	-1.6384698	0.091927507	-0.14358013	-0.9875473	0.10888737	-0.055389022	NaN	NaN	NaN	-1.0371332	0.035385611	-0.031600355	-1.4628953	0.41696354	-0.24379381	-1.134903	0.45059302	0.052552406	-1.4684854	0.39638863	-0.12390882	-1.1162232	0.45680552	-0.076384818	-1.3405018	0.7908965	-0.2945641	-1.3085212	0.8292492	0.090790214	-1.2681882	0.89480058	-0.23695584	-1.2464853	0.91930806	0.0074507302	-1.4578653	0.92215655	-0.096252279	-1.2721811	1.3657166	-0.28259829	-1.2981827	1.3713463	0.040616307	-1.3633775	1.4085082	-0.13149223	-1.3915424	1.0349706	-0.3644339	-1.4490574	1.0515559	0.076670188	-1.1980936	0.88654484	-0.29468973	-1.3563334	0.83744718	0.15238947
6	0.02	-1.5105757	0.03814284	-0.1827477	-0.85570693	0.097602691	-0.0014740083	-1.6346821	0.067851377	-0.22679651	-0.99557412	0.071949426	0.023990649	-1.6380498	0.092368325	-0.14345344	-0.97935577	0.10922636	-0.054359424	NaN	NaN	NaN	-1.0278655	0.03515628	-0.029909513	-1.4607559	0.41654964	-0.24370359	-1.129955	0.4496063	0.053650281	-1.4661273	0.3958397	-0.12365428	-1.1116347	0.45548649	-0.075302089	-1.3372197	0.7901326	-0.29427846	-1.3034836	0.82807596	0.091257289	-1.2646212	0.89382555	-0.23678646	-1.2417101	0.91815706	0.0076724445	-1.4530659	0.92095704	-0.094452243	-1.2676858	1.3645469	-0.2818017	-1.2941226	1.370128	0.041280716	-1.3592329	1.4073549	-0.13092259	-1.3862136	1.0336579	-0.36413732	-1.4457538	1.0507149	0.076909995	-1.192081	0.88631895	-0.29282381	-1.3544612	0.83612571	0.15313246
7	0.024	-1.5105331	0.038077632	-0.18273318	-0.84687326	0.099768388	-0.00119958	-1.6345031	0.068406865	-0.2266244	-0.98671605	0.072269645	0.025310308	-1.6375973	0.092868497	-0.14323764	-0.97148025	0.10950553	-0.053319039	NaN	NaN	NaN	-1.0189473	0.034903143	-0.028193579	-1.4585473	0.4161437	-0.24358139	-1.1249349	0.44870149	0.054694952	-1.4636471	0.39523548	-0.12338059	-1.1070082	0.45423163	-0.074258747	-1.3339832	0.7893604	-0.2940248	-1.2984267	0.82695151	0.09172737	-1.2611442	0.89280687	-0.23665699	-1.2369468	0.91699247	0.0078594234	-1.4480845	0.91978715	-0.092586392	-1.2631688	1.3634175	-0.28097825	-1.290045	1.3689112	0.041974145	-1.3550688	1.4062123	-0.13033599	-1.3807213	1.032336	-0.36365864	-1.4423889	1.0498842	0.077175199	-1.1860126	0.8861407	-0.29092179	-1.3528814	0.83473773	0.15382094
8	0.028	-1.5104733	0.037983255	-0.18270039	-0.83848687	0.10175659	-0.00083325153	-1.6342975	0.069022325	-0.22645468	-0.97819512	0.072568808	0.026651737	-1.6371048	0.093417233	-0.14293002	-0.96389072	0.10971718	-0.052253272	NaN	NaN	NaN	-1.010389	0.034639532	-0.026460394	-1.4562643	0.41573419	-0.24342851	-1.1197574	0.44790285	0.055708028	-1.4610997	0.39459264	-0.12309326	-1.1023332	0.45305808	-0.073250218	-1.330747	0.78859054	-0.29376674	-1.2932577	0.82590322	0.092223904	-1.257615	0.89176641	-0.23652707	-1.2321652	0.9158243	0.008029507	-1.4431377	0.91862122	-0.090858158	-1.2586262	1.3623219	-0.28012503	-1.2860114	1.3677031	0.042716322	-1.3508615	1.4050891	-0.12968219	-1.3751032	1.030974	-0.36310618	-1.4389679	1.0490631	0.077460526	-1.1799099	0.88600369	-0.28899439	-1.3515051	0.83332829	0.15447739
9	0.032	-1.5103978	0.037903433	-0.18266616	-0.83065959	0.10345076	-0.00042399109	-1.6340678	0.069691183	-0.22628404	-0.97004409	0.072825275	0.028006527	-1.6365927	0.094008073	-0.14261967	-0.95655851	0.10985991	-0.051158754	NaN	NaN	NaN	-1.0022057	0.034369375	-0.024704194	-1.4539133	0.41531367	-0.24324504	-1.1144391	0.44720964	0.056695052	-1.45851	0.3939312	-0.12279231	-1.0976044	0.45197699	-0.072273197	-1.3274822	0.78782989	-0.29346792	-1.287728	0.82497555	0.092800936	-1.2538931	0.89073797	-0.23634928	-1.227324	0.91467791	0.0082099772	-1.4383426	0.91742526	-0.089371201	-1.2540544	1.3612637	-0.27924278	-1.2820105	1.3665183	0.043502469	-1.3466017	1.4039948	-0.12895073	-1.3694417	1.0295941	-0.36253311	-1.4354864	1.048243	0.077760653	-1.1738105	0.88588741	-0.28707247	-1.3501388	0.83197894	0.15511013
